<?xml version="1.0" encoding="UTF-8"?>
<svg width="90px" height="102px" viewBox="0 0 90 102" version="1.1" xmlns="http://www.w3.org/2000/svg" xmlns:xlink="http://www.w3.org/1999/xlink">
    <!-- Generator: Sketch 51.3 (57544) - http://www.bohemiancoding.com/sketch -->
    <title>Group</title>
    <desc>Created with Sketch.</desc>
    <defs></defs>
    <g id="Page-1" stroke="none" stroke-width="1" fill="none" fill-rule="evenodd" stroke-linecap="round" stroke-linejoin="round">
        <g id="Artboard-2" transform="translate(-1228.000000, -86.000000)" stroke="#CDCDCD" stroke-width="5">
            <g id="Group" transform="translate(1223.000000, 87.000000)">
                <g id="Light">
                    <path d="M16.6666667,6.25 L41.6666667,6.25 C43.9678531,6.25 45.8333333,8.11548021 45.8333333,10.4166667 L45.8333333,18.75 L87.5,18.75 C89.7916667,18.75 90.2041667,19.9208333 88.4125,21.3541667 L60.4166667,43.75 L91.6666667,68.750002 L31.6666667,68.75 C30.9730254,68.7509577 30.3244007,68.4066263 29.9365566,67.8315471 C29.5487125,67.256468 29.4725233,66.5260753 29.7333333,65.8833333 C32.625,58.725 45.8333333,56.25 45.8333333,56.25 L16.6666667,56.25" id="Shape"></path>
                    <path d="M45.8333333,18.75 L45.8333333,56.25" id="Shape"></path>
                    <path d="M8.33333333,2.08333333 L8.33333333,97.9166667" id="Shape"></path>
                </g>
            </g>
        </g>
    </g>
</svg>