<?xml version="1.0" encoding="UTF-8"?>
<svg width="78px" height="100px" viewBox="0 0 78 100" version="1.1" xmlns="http://www.w3.org/2000/svg" xmlns:xlink="http://www.w3.org/1999/xlink">
    <!-- Generator: Sketch 51.3 (57544) - http://www.bohemiancoding.com/sketch -->
    <title>Group</title>
    <desc>Created with Sketch.</desc>
    <defs></defs>
    <g id="Page-1" stroke="none" stroke-width="1" fill="none" fill-rule="evenodd" stroke-linecap="round" stroke-linejoin="round">
        <g id="Artboard-2" transform="translate(-933.000000, -72.000000)" stroke="#000000" stroke-width="3">
            <g id="Group" transform="translate(922.000000, 72.000000)">
                <g id="Light">
                    <path d="M70.8333333,52.0833333 L75,52.0833333 C81.9035594,52.0833333 87.5,57.679774 87.5,64.5833333 C87.5,71.4868927 81.9035594,77.0833333 75,77.0833333 L70.8333333,77.0833333" id="Shape"></path>
                    <path d="M70.8333333,89.5833333 C70.8333333,94.1857062 67.1023729,97.9166667 62.5,97.9166667 L25,97.9166667 C20.3976271,97.9166667 16.6666667,94.1857062 16.6666667,89.5833333 L16.6666667,45.8333333 C16.6666667,44.6827401 17.5994068,43.75 18.75,43.75 L68.75,43.75 C69.9005932,43.75 70.8333333,44.6827401 70.8333333,45.8333333 L70.8333333,89.5833333 Z" id="Shape"></path>
                    <path d="M70.3375,2.35 C74.6416667,8.90833333 68.2541667,12.5041667 66.7833333,16.025 C65.9923128,17.6788045 65.9424071,19.5910799 66.6460892,21.2838924 C67.3497712,22.9767049 68.7405516,24.2901043 70.4708333,24.8958333 C82.5541667,30 86.1541667,6.175 70.3375,2.35 Z" id="Shape"></path>
                    <path d="M58.3333333,43.75 L69.2041667,24.2208333" id="Shape"></path>
                    <path d="M73.5041667,25.65 L66.6666667,43.75" id="Shape"></path>
                    <polygon id="Shape" points="33.3333333 43.75 20.8333333 43.75 14.5833333 31.25 12.5 18.75 22.9166667 25"></polygon>
                    <path d="M14.5833333,31.25 L22.9166667,25" id="Shape"></path>
                    <path d="M54.1666667,4.16666667 C54.1666667,3.01607344 53.2339266,2.08333333 52.0833333,2.08333333 L39.5833333,2.08333333 C38.4327401,2.08333333 37.5,3.01607344 37.5,4.16666667 L37.5,43.75 L54.1666667,43.75 L54.1666667,4.16666667 Z" id="Shape"></path>
                    <path d="M54.1666667,10.4166667 L45.8333333,10.4166667" id="Shape"></path>
                    <path d="M54.1666667,18.75 L50,18.75" id="Shape"></path>
                    <path d="M54.1666667,27.0833333 L45.8333333,27.0833333" id="Shape"></path>
                    <path d="M54.1666667,35.4166667 L50,35.4166667" id="Shape"></path>
                </g>
            </g>
        </g>
    </g>
</svg>